<?xml version='1.0' encoding='utf-8'?>
<!DOCTYPE svg PUBLIC '-//W3C//DTD SVG 1.1//EN' 'http://www.w3.org/Graphics/SVG/1.1/DTD/svg11.dtd'>
<svg version="1.1" xmlns="http://www.w3.org/2000/svg" viewBox="0 0 512 512" xmlns:xlink="http://www.w3.org/1999/xlink" enable-background="new 0 0 512 512">
  <g>
    <g>
      <path d="m480.6,11h-449.2c-11.3,0-20.4,9.1-20.4,20.4v329.4c0,11.3 9.1,20.4 20.4,20.4h144.2v19.7l-79.8,63.7c-19.5,19.4 2.1,38.3 12.7,36.4h294.9c26.9-1.4 23.3-30.2 12.7-36.4l-79.8-63.7v-19.7h144.2c11.3,0 20.4-9.1 20.4-20.4v-329.4c0.1-11.3-9-20.4-20.3-20.4zm-135.4,449.2h-178.4l41.9-33.5c4.9-3.9 7.7-9.7 7.7-16v-29.5h79.1v29.5c0,6.2 2.8,12.1 7.7,16l42,33.5zm115-119.8h-408.4v-288.6h408.3v288.6z"/>
      <path d="m160.3,216.5h9.5c2.2,9.3 5.9,18.1 10.8,26.1l-6.8,6.8c-8,8-8,20.9 0,28.9 4,4 9.2,6 14.4,6 5.2,0 10.5-2 14.4-6l6.7-6.7c7.9,4.9 16.7,8.6 26.1,10.8v9.5c0,11.3 9.1,20.4 20.4,20.4 11.3,0 20.4-9.1 20.4-20.4v-9.5c9.3-2.2 18.1-5.9 26.1-10.8l6.8,6.8c4,4 9.2,6 14.4,6 5.2,0 10.4-2 14.4-6 8-8 8-20.9 0-28.9l-6.8-6.8c4.9-7.9 8.6-16.7 10.8-26.1h9.5c11.3,0 20.4-9.1 20.4-20.4 0-11.3-9.1-20.4-20.4-20.4h-9.5c-2.2-9.3-5.9-18.1-10.8-26.1l6.7-6.7c8-8 8-20.9 0-28.9-8-8-20.9-8-28.9,0l-6.8,6.8c-7.9-4.9-16.7-8.6-26.1-10.8v-9.5c0-11.3-9.1-20.4-20.4-20.4-11.3,0-20.4,9.1-20.4,20.4v9.5c-9.3,2.2-18.1,5.9-26.1,10.8l-6.8-6.8c-8-8-20.9-8-28.9,0-8,8-8,20.9 0,28.9l6.8,6.8c-4.9,7.9-8.6,16.7-10.8,26.1h-9.5c-11.3,0-20.4,9.1-20.4,20.4 0.4,11.1 9.5,20.2 20.8,20.2zm95.7-68.1c26.3,0 47.7,21.4 47.7,47.7 0,26.3-21.4,47.7-47.7,47.7-26.3,0-47.7-21.4-47.7-47.7 0-26.3 21.4-47.7 47.7-47.7z"/>
    </g>
  </g>
</svg>
