<?xml version='1.0' encoding='utf-8'?>
<!DOCTYPE svg PUBLIC '-//W3C//DTD SVG 1.1//EN' 'http://www.w3.org/Graphics/SVG/1.1/DTD/svg11.dtd'>
<svg version="1.1" xmlns="http://www.w3.org/2000/svg" viewBox="0 0 512 512" xmlns:xlink="http://www.w3.org/1999/xlink" enable-background="new 0 0 512 512">
  <g>
    <g>
      <path d="m256.4,245.1c64.5,0 117-52.5 117-117s-52.5-117-117-117c-64.5,0-117,52.5-117,117s52.4,117 117,117zm0-193.3c42,1.42109e-14 76.2,34.2 76.2,76.2 0,42-34.2,76.2-76.2,76.2-42,0-76.2-34.2-76.2-76.2 0-42 34.2-76.2 76.2-76.2z"/>
      <path d="M368.1,250.7c-8.1-4.4-18-2.8-24.4,3.8L256,345.3l-87.7-90.8c-6.4-6.6-16.4-8.1-24.4-3.7C63.1,294.8,10.9,385,11,480.6    c0,11.3,9.1,20.4,20.4,20.4h449.2c17.4-1,20.4-15,20.4-20.4C501,384.7,448.8,294.5,368.1,250.7z M52.7,460.2    c6.1-67.8,42.6-130,97.4-165.7l91.1,94.3c7.7,8,21.7,8,29.4,0l91.2-94.3c54.7,35.5,91.2,97.8,97.4,165.7H52.7z"/>
    </g>
  </g>
</svg>
