<?xml version="1.0" encoding="iso-8859-1"?>
<!-- Generator: Adobe Illustrator 19.0.0, SVG Export Plug-In . SVG Version: 6.00 Build 0)  -->
<svg version="1.1" id="Layer_1" xmlns="http://www.w3.org/2000/svg" xmlns:xlink="http://www.w3.org/1999/xlink" x="0px" y="0px"
	 viewBox="0 0 321.094 321.094" style="enable-background:new 0 0 321.094 321.094;" xml:space="preserve">
<g>
	<g>
		<g>
			<path d="M277.54,19.907h-63.18V7.5c0-4.142-3.357-7.5-7.5-7.5h-92.625c-4.143,0-7.5,3.358-7.5,7.5v12.407h-63.18
				c-4.143,0-7.5,3.358-7.5,7.5v286.187c0,4.142,3.357,7.5,7.5,7.5h233.984c4.143,0,7.5-3.358,7.5-7.5V27.407
				C285.04,23.265,281.683,19.907,277.54,19.907z M121.735,15h77.625v24h-77.625V15z M270.041,306.094h-0.001H51.056V34.907h55.68
				V46.5c0,4.142,3.357,7.5,7.5,7.5h92.625c4.143,0,7.5-3.358,7.5-7.5V34.907h55.68V306.094z"/>
			<path d="M109.397,86.5h-35c-4.143,0-7.5,3.358-7.5,7.5v35c0,4.142,3.357,7.5,7.5,7.5h35c4.143,0,7.5-3.358,7.5-7.5V94
				C116.897,89.858,113.54,86.5,109.397,86.5z M101.897,121.5h-20v-20h20V121.5z"/>
			<path d="M126.897,94v35c0,4.142,3.357,7.5,7.5,7.5h112.301c4.143,0,7.5-3.358,7.5-7.5V94c0-4.142-3.357-7.5-7.5-7.5H134.397
				C130.255,86.5,126.897,89.858,126.897,94z M141.897,101.5h97.301v20h-97.301V101.5z"/>
			<path d="M109.397,155.5h-35c-4.143,0-7.5,3.358-7.5,7.5v35c0,4.142,3.357,7.5,7.5,7.5h35c4.143,0,7.5-3.358,7.5-7.5v-35
				C116.897,158.858,113.54,155.5,109.397,155.5z M101.897,190.5h-20v-20h20V190.5z"/>
			<path d="M246.698,155.5H134.397c-4.143,0-7.5,3.358-7.5,7.5v35c0,4.142,3.357,7.5,7.5,7.5h112.301c4.143,0,7.5-3.358,7.5-7.5v-35
				C254.198,158.858,250.841,155.5,246.698,155.5z M239.198,190.5h-97.301v-20h97.301V190.5z"/>
			<path d="M109.397,224.5h-35c-4.143,0-7.5,3.358-7.5,7.5v35c0,4.142,3.357,7.5,7.5,7.5h35c4.143,0,7.5-3.358,7.5-7.5v-35
				C116.897,227.858,113.54,224.5,109.397,224.5z M101.897,259.5h-20v-20h20V259.5z"/>
			<path d="M246.698,224.5H134.397c-4.143,0-7.5,3.358-7.5,7.5v35c0,4.142,3.357,7.5,7.5,7.5h112.301c4.143,0,7.5-3.358,7.5-7.5v-35
				C254.198,227.858,250.841,224.5,246.698,224.5z M239.198,259.5h-97.301v-20h97.301V259.5z"/>
		</g>
	</g>
</g>
<g>
</g>
<g>
</g>
<g>
</g>
<g>
</g>
<g>
</g>
<g>
</g>
<g>
</g>
<g>
</g>
<g>
</g>
<g>
</g>
<g>
</g>
<g>
</g>
<g>
</g>
<g>
</g>
<g>
</g>
</svg>
